<svg id="Layer_1" data-name="Layer 1" xmlns="http://www.w3.org/2000/svg" xmlns:xlink="http://www.w3.org/1999/xlink" viewBox="0 0 217.18 295.68"><defs><style>.cls-1{fill:url(#linear-gradient);}.cls-2{fill:url(#linear-gradient-2);}.cls-3{fill:url(#linear-gradient-3);}.cls-4{fill:url(#linear-gradient-4);}.cls-5{fill:url(#linear-gradient-5);}.cls-6{fill:url(#linear-gradient-6);}.cls-7{fill:url(#linear-gradient-7);}.cls-8{fill:url(#linear-gradient-8);}.cls-9{fill:url(#linear-gradient-9);}.cls-10{fill:url(#linear-gradient-10);}.cls-11{fill:url(#linear-gradient-11);}.cls-12{fill:url(#linear-gradient-12);}.cls-13{fill:#7d1418;}.cls-14{fill:url(#linear-gradient-13);}</style><linearGradient id="linear-gradient" x1="31.99" y1="39.41" x2="21.19" y2="154.4" gradientUnits="userSpaceOnUse"><stop offset="0" stop-color="#c4482c"/><stop offset="1" stop-color="#f27121"/></linearGradient><linearGradient id="linear-gradient-2" x1="123.92" y1="79.68" x2="111.08" y2="18.51" gradientUnits="userSpaceOnUse"><stop offset="0" stop-color="#7c010d"/><stop offset="0.3" stop-color="#9a0d22"/><stop offset="0.38" stop-color="#a40e28"/><stop offset="1" stop-color="#ec1555"/></linearGradient><linearGradient id="linear-gradient-3" x1="233.4" y1="42.98" x2="157.84" y2="42.98" gradientUnits="userSpaceOnUse"><stop offset="0" stop-color="#c3302b"/><stop offset="1" stop-color="#f16731"/></linearGradient><linearGradient id="linear-gradient-4" x1="201.67" y1="203.45" x2="195.47" y2="70.3" gradientUnits="userSpaceOnUse"><stop offset="0" stop-color="#800310"/><stop offset="0.12" stop-color="#900b13"/><stop offset="0.52" stop-color="#c2231c"/><stop offset="0.83" stop-color="#e13122"/><stop offset="1" stop-color="#ed3724"/></linearGradient><linearGradient id="linear-gradient-5" x1="210.79" y1="239.54" x2="191.39" y2="189.17" gradientUnits="userSpaceOnUse"><stop offset="0" stop-color="#ee3e28"/><stop offset="1" stop-color="#f16528"/></linearGradient><linearGradient id="linear-gradient-6" x1="70.71" y1="189.27" x2="189.62" y2="199.65" gradientUnits="userSpaceOnUse"><stop offset="0" stop-color="#62040e"/><stop offset="0.14" stop-color="#800b17"/><stop offset="0.46" stop-color="#bf1a29"/><stop offset="1" stop-color="#c91b2b"/></linearGradient><linearGradient id="linear-gradient-7" x1="84.35" y1="93.73" x2="34.16" y2="282.73" gradientUnits="userSpaceOnUse"><stop offset="0" stop-color="#870714"/><stop offset="0.14" stop-color="#a5121a"/><stop offset="0.51" stop-color="#ed2d28"/><stop offset="1" stop-color="#ee3e28"/></linearGradient><linearGradient id="linear-gradient-8" x1="54.59" y1="16.2" x2="89" y2="77.9" gradientUnits="userSpaceOnUse"><stop offset="0" stop-color="#ee3e28"/><stop offset="1" stop-color="#ee4628"/></linearGradient><linearGradient id="linear-gradient-9" x1="24.43" y1="174.65" x2="67.37" y2="57.4" gradientUnits="userSpaceOnUse"><stop offset="0" stop-color="#520001"/><stop offset="0.16" stop-color="#6f070a"/><stop offset="0.41" stop-color="#931016"/><stop offset="0.64" stop-color="#ad161e"/><stop offset="0.84" stop-color="#bd1a23"/><stop offset="1" stop-color="#c31b25"/></linearGradient><linearGradient id="linear-gradient-10" x1="83.04" y1="80.28" x2="5.25" y2="234.6" xlink:href="#linear-gradient-7"/><linearGradient id="linear-gradient-11" x1="164" y1="19.88" x2="148.31" y2="92.55" gradientUnits="userSpaceOnUse"><stop offset="0" stop-color="#bd3d29"/><stop offset="1" stop-color="#f05642"/></linearGradient><linearGradient id="linear-gradient-12" x1="162.06" y1="79.91" x2="173.83" y2="178.38" gradientUnits="userSpaceOnUse"><stop offset="0" stop-color="#c3201c"/><stop offset="1" stop-color="#8e201a"/></linearGradient><linearGradient id="linear-gradient-13" x1="126.17" y1="208.03" x2="96.23" y2="234.45" xlink:href="#linear-gradient-6"/></defs><polygon class="cls-1" points="42.44 30.02 41.34 39.59 28.96 154.31 0 278.27 25.71 47.07 42.44 30.02"/><polygon class="cls-2" points="145.34 13.23 136.25 84.15 90.12 84.15 71.84 0 145.34 13.23"/><polygon class="cls-3" points="217.18 44.59 172.69 72.73 171.75 69.36 145.34 13.23 217.18 44.59"/><polygon class="cls-4" points="217.18 44.59 202.31 196.52 172.69 72.73 217.18 44.59"/><polygon class="cls-5" points="212.22 257.63 174.05 165.18 202.31 196.52 212.22 257.63"/><polygon class="cls-6" points="212.22 257.63 173.41 295.68 66.07 295.68 90.12 84.15 90.12 221.36 133.99 209.13 136.25 129.53 174.05 165.18 212.22 257.63"/><polygon class="cls-7" points="90.12 84.15 66.07 295.68 0 278.27 90.12 84.15"/><polygon class="cls-8" points="90.12 84.15 41.34 39.59 42.44 30.02 71.84 0 90.12 84.15"/><polygon class="cls-9" points="90.12 84.15 28.96 154.31 41.34 39.59 90.12 84.15"/><polygon class="cls-10" points="90.12 84.15 0 278.27 28.96 154.31 90.12 84.15"/><polygon class="cls-11" points="172.69 72.73 171.75 73.47 136.25 84.15 145.34 13.23 171.75 69.36 172.69 72.73"/><polygon class="cls-12" points="202.31 196.52 174.05 165.18 136.25 84.15 171.75 73.47 172.69 72.73 202.31 196.52"/><polygon class="cls-13" points="174.05 165.18 136.25 129.53 136.25 84.15 174.05 165.18"/><polygon class="cls-14" points="133.99 224.82 133.99 209.13 90.12 216.15 90.12 221.36 133.99 224.82"/></svg>